<svg xmlns="http://www.w3.org/2000/svg" xmlns:xlink="http://www.w3.org/1999/xlink" width="1097" zoomAndPan="magnify" viewBox="0 0 822.75 380.250002" height="507" preserveAspectRatio="xMidYMid meet" version="1.0"><defs><g/><clipPath id="fe8a5dedaa"><rect x="0" width="590" y="0" height="211"/></clipPath><clipPath id="282e2ab99f"><rect x="0" width="89" y="0" height="174"/></clipPath></defs><g transform="matrix(1, 0, 0, 1, 69, 111)"><g clip-path="url(#fe8a5dedaa)"><g fill="#3e506b" fill-opacity="1"><g transform="translate(0.563499, 156.309392)"><g><path d="M 74.296875 -118.203125 L 75.78125 -115.734375 C 76.21875 -112.117188 76.546875 -108.5 76.765625 -104.875 C 76.984375 -101.257812 77.09375 -97.585938 77.09375 -93.859375 C 77.09375 -92.109375 77.066406 -90.300781 77.015625 -88.4375 C 76.960938 -86.570312 76.878906 -84.765625 76.765625 -83.015625 C 76.441406 -79.398438 76.28125 -75.945312 76.28125 -72.65625 L 76.28125 -68.0625 C 76.28125 -67.84375 76.304688 -67.566406 76.359375 -67.234375 C 76.410156 -66.910156 76.4375 -66.582031 76.4375 -66.25 C 76.4375 -65.8125 76.460938 -65.316406 76.515625 -64.765625 C 76.578125 -64.222656 76.609375 -63.675781 76.609375 -63.125 L 76.609375 -60.828125 C 76.710938 -59.285156 76.789062 -57.472656 76.84375 -55.390625 C 76.90625 -53.316406 76.9375 -51.457031 76.9375 -49.8125 L 76.9375 -29.09375 C 76.9375 -21.3125 77.265625 -15.285156 77.921875 -11.015625 L 77.921875 -11.171875 C 78.140625 -10.410156 78.25 -9.644531 78.25 -8.875 C 78.25 -8.101562 78.25 -7.335938 78.25 -6.578125 C 78.25 -3.503906 77.425781 -1.367188 75.78125 -0.171875 C 75.238281 0.273438 74.691406 0.523438 74.140625 0.578125 C 73.585938 0.628906 73.039062 0.65625 72.5 0.65625 C 71.726562 0.65625 70.460938 0.351562 68.703125 -0.25 C 66.953125 -0.851562 65.75 -1.972656 65.09375 -3.609375 C 64.988281 -5.804688 64.878906 -8.082031 64.765625 -10.4375 C 64.660156 -12.789062 64.550781 -15.066406 64.4375 -17.265625 C 64.332031 -20.765625 64.171875 -24.296875 63.953125 -27.859375 C 63.734375 -31.421875 63.515625 -35.066406 63.296875 -38.796875 L 63.296875 -68.546875 C 63.296875 -69.097656 63.265625 -69.644531 63.203125 -70.1875 C 63.148438 -70.738281 63.125 -71.289062 63.125 -71.84375 L 63.125 -74.96875 C 63.125 -75.507812 63.148438 -76.023438 63.203125 -76.515625 C 63.265625 -77.015625 63.296875 -77.484375 63.296875 -77.921875 L 63.296875 -80.546875 C 63.398438 -81.535156 63.453125 -82.519531 63.453125 -83.5 C 63.453125 -84.488281 63.453125 -85.425781 63.453125 -86.3125 L 63.453125 -87.78125 C 63.015625 -86.570312 62.492188 -85.144531 61.890625 -83.5 C 61.285156 -81.863281 60.820312 -80.441406 60.5 -79.234375 C 59.175781 -76.273438 58.023438 -73.097656 57.046875 -69.703125 C 55.953125 -65.972656 54.664062 -62.4375 53.1875 -59.09375 C 51.707031 -55.75 49.429688 -52.875 46.359375 -50.46875 C 46.023438 -50.351562 45.503906 -50.269531 44.796875 -50.21875 C 44.085938 -50.164062 43.566406 -50.191406 43.234375 -50.296875 C 40.929688 -51.179688 39.066406 -52.769531 37.640625 -55.0625 C 36.222656 -57.363281 34.851562 -60.050781 33.53125 -63.125 L 33.53125 -62.96875 C 31.007812 -67.457031 28.816406 -71.671875 26.953125 -75.609375 C 25.097656 -79.554688 23.347656 -83.941406 21.703125 -88.765625 L 21.703125 -88.609375 L 21.203125 -89.421875 C 21.316406 -86.023438 21.398438 -82.847656 21.453125 -79.890625 C 21.503906 -76.929688 21.53125 -74.140625 21.53125 -71.515625 L 21.53125 -47.671875 C 21.53125 -46.898438 21.554688 -46.078125 21.609375 -45.203125 C 21.671875 -44.328125 21.703125 -43.394531 21.703125 -42.40625 L 21.703125 -39.296875 C 21.703125 -37.097656 21.671875 -35.09375 21.609375 -33.28125 C 21.554688 -31.476562 21.421875 -29.644531 21.203125 -27.78125 C 21.203125 -27.675781 21.175781 -27.539062 21.125 -27.375 C 21.070312 -27.207031 21.046875 -27.015625 21.046875 -26.796875 C 20.929688 -25.148438 20.875 -23.476562 20.875 -21.78125 C 20.875 -20.082031 20.875 -18.140625 20.875 -15.953125 C 20.988281 -13.867188 21.097656 -12.113281 21.203125 -10.6875 C 21.316406 -9.257812 21.484375 -8.050781 21.703125 -7.0625 L 21.703125 -5.75 L 21.859375 -5.09375 C 21.859375 -2.03125 20.328125 -0.164062 17.265625 0.5 L 17.59375 0.328125 C 17.15625 0.546875 16.742188 0.679688 16.359375 0.734375 C 15.972656 0.796875 15.671875 0.828125 15.453125 0.828125 C 14.679688 0.828125 13.664062 0.414062 12.40625 -0.40625 C 11.144531 -1.226562 10.1875 -2.519531 9.53125 -4.28125 C 9.3125 -6.46875 9.117188 -8.765625 8.953125 -11.171875 C 8.796875 -13.585938 8.71875 -16.21875 8.71875 -19.0625 C 8.71875 -21.800781 8.769531 -24.515625 8.875 -27.203125 C 8.988281 -29.890625 9.097656 -32.164062 9.203125 -34.03125 C 9.421875 -36 9.53125 -38.078125 9.53125 -40.265625 C 9.53125 -42.460938 9.53125 -44.710938 9.53125 -47.015625 L 9.53125 -69.203125 C 9.53125 -72.273438 9.53125 -75.097656 9.53125 -77.671875 C 9.53125 -80.242188 9.421875 -82.738281 9.203125 -85.15625 C 8.984375 -88.988281 8.738281 -92.6875 8.46875 -96.25 C 8.195312 -99.8125 7.785156 -103.179688 7.234375 -106.359375 C 7.234375 -106.910156 7.257812 -107.429688 7.3125 -107.921875 C 7.363281 -108.410156 7.390625 -108.988281 7.390625 -109.65625 L 7.390625 -111.296875 C 7.390625 -112.171875 7.414062 -113.019531 7.46875 -113.84375 C 7.53125 -114.664062 7.890625 -115.296875 8.546875 -115.734375 C 8.984375 -116.390625 9.421875 -116.796875 9.859375 -116.953125 C 10.296875 -117.117188 10.789062 -117.257812 11.34375 -117.375 C 11.445312 -117.375 11.554688 -117.398438 11.671875 -117.453125 C 11.785156 -117.515625 11.894531 -117.546875 12 -117.546875 C 12.21875 -117.648438 12.519531 -117.753906 12.90625 -117.859375 C 13.289062 -117.972656 13.59375 -118.140625 13.8125 -118.359375 C 14.46875 -118.910156 15.125 -119.265625 15.78125 -119.421875 C 16.4375 -119.585938 17.039062 -119.671875 17.59375 -119.671875 C 19.019531 -119.671875 20.5 -118.738281 22.03125 -116.875 C 23.5625 -115.019531 24.929688 -112.554688 26.140625 -109.484375 C 26.460938 -108.390625 26.976562 -107.179688 27.6875 -105.859375 C 28.40625 -104.546875 29.203125 -103.175781 30.078125 -101.75 C 30.628906 -100.65625 31.175781 -99.503906 31.71875 -98.296875 C 32.269531 -97.097656 32.875 -95.566406 33.53125 -93.703125 L 33.53125 -93.859375 C 33.75 -93.421875 33.941406 -92.957031 34.109375 -92.46875 C 34.273438 -91.976562 34.410156 -91.625 34.515625 -91.40625 L 34.359375 -91.734375 L 37.484375 -84.171875 L 43.5625 -70.6875 C 45.644531 -75.289062 47.367188 -79.375 48.734375 -82.9375 C 50.109375 -86.5 51.234375 -89.484375 52.109375 -91.890625 C 52.109375 -92.109375 52.160156 -92.378906 52.265625 -92.703125 C 52.378906 -93.035156 52.4375 -93.3125 52.4375 -93.53125 C 53.644531 -96.71875 54.796875 -99.457031 55.890625 -101.75 C 56.984375 -104.050781 57.972656 -105.914062 58.859375 -107.34375 C 60.054688 -108.882812 60.875 -110.203125 61.3125 -111.296875 C 61.75 -112.390625 62.023438 -113.320312 62.140625 -114.09375 C 62.359375 -117.925781 63.945312 -119.84375 66.90625 -119.84375 C 67.894531 -119.84375 69.15625 -119.703125 70.6875 -119.421875 C 72.21875 -119.148438 73.421875 -118.742188 74.296875 -118.203125 Z M 74.296875 -118.203125 "/></g></g></g><g fill="#3e506b" fill-opacity="1"><g transform="translate(88.828298, 156.309392)"><g><path d="M 47.84375 -24.328125 C 49.375 -23.671875 50.441406 -22.738281 51.046875 -21.53125 C 51.648438 -20.332031 51.953125 -18.742188 51.953125 -16.765625 C 51.953125 -11.722656 51.046875 -7.914062 49.234375 -5.34375 C 47.421875 -2.769531 45.007812 -1.015625 42 -0.078125 C 38.988281 0.847656 35.675781 1.476562 32.0625 1.8125 L 31.234375 1.8125 C 27.179688 1.8125 22.90625 0.878906 18.40625 -0.984375 C 13.914062 -2.847656 10.519531 -6.132812 8.21875 -10.84375 C 7.125 -12.382812 6.273438 -14.769531 5.671875 -18 C 5.066406 -21.226562 4.628906 -24.84375 4.359375 -28.84375 C 4.085938 -32.84375 3.894531 -36.84375 3.78125 -40.84375 C 3.664062 -44.84375 3.609375 -48.328125 3.609375 -51.296875 C 3.609375 -60.710938 4.429688 -68.101562 6.078125 -73.46875 C 7.722656 -78.84375 10.242188 -82.65625 13.640625 -84.90625 C 17.035156 -87.15625 21.3125 -88.28125 26.46875 -88.28125 C 32.71875 -88.28125 37.484375 -87.128906 40.765625 -84.828125 C 44.054688 -82.523438 46.410156 -78.46875 47.828125 -72.65625 C 49.253906 -66.851562 50.300781 -58.632812 50.96875 -48 L 50.796875 -46.6875 C 48.710938 -43.289062 45.863281 -41.59375 42.25 -41.59375 C 41.257812 -41.59375 40.21875 -41.703125 39.125 -41.921875 C 38.90625 -41.921875 38.710938 -41.945312 38.546875 -42 C 38.378906 -42.050781 38.1875 -42.078125 37.96875 -42.078125 C 37.75 -42.191406 37.367188 -42.25 36.828125 -42.25 L 35.515625 -42.40625 L 33.53125 -42.40625 C 29.476562 -42.40625 26.132812 -42.378906 23.5 -42.328125 C 20.875 -42.273438 18.628906 -42.140625 16.765625 -41.921875 L 16.765625 -38.796875 C 16.765625 -38.023438 16.765625 -37.3125 16.765625 -36.65625 C 16.765625 -36 16.820312 -35.234375 16.9375 -34.359375 L 16.9375 -31.5625 C 16.9375 -31.125 16.960938 -30.601562 17.015625 -30 C 17.066406 -29.394531 17.09375 -28.820312 17.09375 -28.28125 C 17.09375 -22.582031 18.328125 -18.28125 20.796875 -15.375 C 23.265625 -12.46875 27.566406 -11.015625 33.703125 -11.015625 C 36.328125 -11.015625 38.023438 -11.78125 38.796875 -13.3125 C 39.015625 -13.53125 39.148438 -13.882812 39.203125 -14.375 C 39.265625 -14.875 39.296875 -15.175781 39.296875 -15.28125 C 39.296875 -15.832031 39.347656 -16.378906 39.453125 -16.921875 C 39.566406 -17.472656 39.675781 -17.859375 39.78125 -18.078125 L 39.78125 -17.921875 L 39.953125 -18.40625 C 41.367188 -22.351562 43.722656 -24.382812 47.015625 -24.5 Z M 20.390625 -73.3125 C 18.847656 -71.226562 17.832031 -69.0625 17.34375 -66.8125 C 16.851562 -64.570312 16.609375 -62.191406 16.609375 -59.671875 C 16.609375 -58.578125 16.609375 -57.644531 16.609375 -56.875 C 16.609375 -56.113281 16.660156 -55.289062 16.765625 -54.40625 L 19.234375 -54.40625 C 20.660156 -54.40625 22.191406 -54.40625 23.828125 -54.40625 C 25.472656 -54.40625 27.226562 -54.351562 29.09375 -54.25 L 36.984375 -54.25 C 36.878906 -56.769531 36.796875 -58.878906 36.734375 -60.578125 C 36.679688 -62.273438 36.546875 -63.78125 36.328125 -65.09375 C 36.222656 -67.613281 35.921875 -69.664062 35.421875 -71.25 C 34.929688 -72.84375 34.25 -73.859375 33.375 -74.296875 L 33.53125 -74.296875 C 32.769531 -74.628906 31.894531 -74.929688 30.90625 -75.203125 C 29.914062 -75.484375 28.820312 -75.625 27.625 -75.625 L 26.46875 -75.625 C 24.9375 -75.40625 23.648438 -75.15625 22.609375 -74.875 C 21.566406 -74.601562 20.828125 -74.082031 20.390625 -73.3125 Z M 20.390625 -73.3125 "/></g></g></g><g fill="#3e506b" fill-opacity="1"><g transform="translate(146.356558, 156.309392)"><g><path d="M 54.578125 -64.28125 L 54.578125 -28.28125 C 54.578125 -27.945312 54.578125 -27.585938 54.578125 -27.203125 C 54.578125 -26.816406 54.628906 -26.296875 54.734375 -25.640625 C 54.960938 -23.992188 55.128906 -22.046875 55.234375 -19.796875 C 55.347656 -17.554688 55.40625 -15.234375 55.40625 -12.828125 L 55.40625 -9.859375 C 55.40625 -6.898438 55.15625 -4.515625 54.65625 -2.703125 C 54.164062 -0.898438 52.382812 0 49.3125 0 C 47.125 0 45.535156 -0.820312 44.546875 -2.46875 C 43.566406 -4.113281 42.9375 -6.195312 42.65625 -8.71875 C 42.382812 -11.238281 42.25 -13.757812 42.25 -16.28125 L 42.25 -32.0625 C 42.25 -33.59375 42.25 -35.179688 42.25 -36.828125 C 42.25 -38.472656 42.300781 -40.113281 42.40625 -41.75 L 42.40625 -51.78125 C 42.40625 -54.300781 42.378906 -56.820312 42.328125 -59.34375 C 42.273438 -61.863281 42.082031 -64.332031 41.75 -66.75 C 40.988281 -72.445312 37.921875 -75.347656 32.546875 -75.453125 C 30.242188 -75.015625 27.722656 -74.054688 24.984375 -72.578125 C 22.242188 -71.097656 20.765625 -69.425781 20.546875 -67.5625 C 20.546875 -67.34375 20.519531 -67.125 20.46875 -66.90625 C 20.414062 -66.6875 20.390625 -66.46875 20.390625 -66.25 C 20.054688 -63.832031 19.890625 -61.476562 19.890625 -59.1875 C 19.890625 -56.769531 19.914062 -54.351562 19.96875 -51.9375 C 20.03125 -49.53125 20.113281 -47.066406 20.21875 -44.546875 C 20.332031 -40.710938 20.390625 -36.578125 20.390625 -32.140625 C 20.390625 -27.703125 20.390625 -23.398438 20.390625 -19.234375 L 20.390625 -12.5 C 20.390625 -10.519531 20.304688 -8.515625 20.140625 -6.484375 C 19.972656 -4.460938 19.53125 -2.789062 18.8125 -1.46875 C 18.101562 -0.15625 16.816406 0.5 14.953125 0.5 C 14.628906 0.5 14.164062 0.441406 13.5625 0.328125 C 12.957031 0.222656 12.328125 -0.0507812 11.671875 -0.5 C 10.140625 -1.257812 9.070312 -2.515625 8.46875 -4.265625 C 7.863281 -6.023438 7.503906 -7.945312 7.390625 -10.03125 C 7.285156 -12.113281 7.234375 -13.921875 7.234375 -15.453125 L 7.234375 -48.328125 C 7.234375 -52.054688 7.3125 -55.78125 7.46875 -59.5 C 7.632812 -63.226562 7.941406 -66.90625 8.390625 -70.53125 C 8.929688 -75.238281 10.707031 -78.769531 13.71875 -81.125 C 16.738281 -83.476562 20.382812 -85.257812 24.65625 -86.46875 C 25.863281 -86.800781 27.257812 -87.078125 28.84375 -87.296875 C 30.4375 -87.515625 32.109375 -87.625 33.859375 -87.625 C 36.929688 -87.625 39.890625 -87.179688 42.734375 -86.296875 C 45.585938 -85.421875 48.054688 -83.941406 50.140625 -81.859375 C 52.328125 -79.671875 53.613281 -77.039062 54 -73.96875 C 54.382812 -70.90625 54.578125 -67.675781 54.578125 -64.28125 Z M 54.578125 -64.28125 "/></g></g></g><g fill="#3e506b" fill-opacity="1"><g transform="translate(212.596239, 156.309392)"><g><path d="M 37.8125 -17.265625 L 38.296875 -17.75 C 38.410156 -17.863281 38.410156 -17.921875 38.296875 -17.921875 C 38.191406 -17.921875 38.191406 -17.972656 38.296875 -18.078125 C 38.734375 -18.953125 39.390625 -19.828125 40.265625 -20.703125 C 41.148438 -21.585938 42.304688 -22.03125 43.734375 -22.03125 C 47.453125 -22.03125 49.3125 -19.726562 49.3125 -15.125 C 49.3125 -14.789062 49.3125 -14.378906 49.3125 -13.890625 C 49.3125 -13.398438 49.203125 -12.769531 48.984375 -12 C 47.785156 -7.613281 45.734375 -4.101562 42.828125 -1.46875 C 39.921875 1.15625 35.78125 2.46875 30.40625 2.46875 C 27.226562 2.46875 23.992188 1.535156 20.703125 -0.328125 C 17.421875 -2.191406 14.847656 -4.546875 12.984375 -7.390625 C 11.773438 -9.691406 11.035156 -12.078125 10.765625 -14.546875 C 10.492188 -17.015625 10.359375 -19.5625 10.359375 -22.1875 L 10.359375 -30.90625 C 10.359375 -31.894531 10.382812 -33.265625 10.4375 -35.015625 C 10.488281 -36.765625 10.515625 -38.191406 10.515625 -39.296875 L 10.515625 -40.109375 C 10.191406 -50.523438 10.03125 -60.992188 10.03125 -71.515625 L 8.21875 -71.515625 C 6.132812 -71.515625 3.992188 -71.953125 1.796875 -72.828125 C -0.390625 -73.703125 -1.484375 -75.34375 -1.484375 -77.75 C -1.484375 -78.519531 -1.179688 -79.476562 -0.578125 -80.625 C 0.0234375 -81.78125 0.738281 -82.820312 1.5625 -83.75 C 2.382812 -84.6875 3.125 -85.15625 3.78125 -85.15625 C 4.113281 -85.15625 4.46875 -85.125 4.84375 -85.0625 C 5.226562 -85.007812 5.585938 -84.984375 5.921875 -84.984375 L 10.1875 -84.984375 C 10.082031 -85.535156 10 -86.082031 9.9375 -86.625 C 9.882812 -87.175781 9.859375 -87.671875 9.859375 -88.109375 C 9.753906 -89.203125 9.59375 -90.816406 9.375 -92.953125 C 9.15625 -95.097656 9.046875 -98.632812 9.046875 -103.5625 C 9.046875 -104.550781 9.289062 -105.921875 9.78125 -107.671875 C 10.269531 -109.429688 10.789062 -110.800781 11.34375 -111.78125 L 11.015625 -111.453125 C 11.234375 -112.328125 11.78125 -113.039062 12.65625 -113.59375 C 13.53125 -114.144531 14.515625 -114.421875 15.609375 -114.421875 C 17.472656 -114.421875 19.144531 -113.925781 20.625 -112.9375 C 22.101562 -111.945312 22.84375 -110.628906 22.84375 -108.984375 L 22.84375 -93.703125 C 22.84375 -92.609375 22.867188 -91.289062 22.921875 -89.75 C 22.984375 -88.21875 23.066406 -86.628906 23.171875 -84.984375 C 24.378906 -85.097656 25.914062 -85.207031 27.78125 -85.3125 C 29.644531 -85.425781 31.234375 -85.484375 32.546875 -85.484375 C 34.628906 -85.484375 36.492188 -84.742188 38.140625 -83.265625 C 39.785156 -81.785156 40.609375 -80.222656 40.609375 -78.578125 C 40.609375 -75.285156 38.796875 -73.53125 35.171875 -73.3125 L 24.328125 -72.828125 L 24.65625 -72.828125 C 24.332031 -72.710938 23.976562 -72.65625 23.59375 -72.65625 C 23.207031 -72.65625 22.847656 -72.65625 22.515625 -72.65625 C 22.847656 -72.550781 23.015625 -71.945312 23.015625 -70.84375 C 23.015625 -69.75 23.015625 -68.765625 23.015625 -67.890625 L 23.015625 -52.109375 C 23.015625 -50.023438 23.039062 -47.882812 23.09375 -45.6875 C 23.144531 -43.5 23.171875 -41.367188 23.171875 -39.296875 L 23.171875 -33.53125 C 23.171875 -32.988281 23.144531 -32.382812 23.09375 -31.71875 C 23.039062 -31.0625 23.015625 -30.351562 23.015625 -29.59375 C 22.898438 -28.71875 22.84375 -27.675781 22.84375 -26.46875 C 22.84375 -25.257812 22.84375 -23.890625 22.84375 -22.359375 C 22.84375 -19.617188 23.414062 -16.957031 24.5625 -14.375 C 25.71875 -11.800781 27.664062 -10.40625 30.40625 -10.1875 C 32.601562 -10.1875 34.164062 -10.867188 35.09375 -12.234375 C 36.03125 -13.609375 36.9375 -15.285156 37.8125 -17.265625 Z M 37.8125 -17.265625 "/></g></g></g><g fill="#3e506b" fill-opacity="1"><g transform="translate(263.714208, 156.309392)"><g><path d="M 49.3125 -33.375 C 49.53125 -31.070312 49.664062 -28.140625 49.71875 -24.578125 C 49.78125 -21.015625 49.8125 -17.914062 49.8125 -15.28125 C 49.8125 -8.925781 47.8125 -4.429688 43.8125 -1.796875 C 39.8125 0.828125 34.25 2.140625 27.125 2.140625 L 24.65625 2.140625 C 20.925781 1.804688 17.5 0.570312 14.375 -1.5625 C 11.257812 -3.695312 8.796875 -6.378906 6.984375 -9.609375 C 5.179688 -12.847656 4.28125 -16.164062 4.28125 -19.5625 C 4.28125 -22.738281 4.828125 -26.023438 5.921875 -29.421875 C 7.015625 -32.816406 8.710938 -35.910156 11.015625 -38.703125 C 13.316406 -41.503906 16.332031 -43.507812 20.0625 -44.71875 L 19.890625 -44.71875 C 21.097656 -45.257812 22.410156 -45.613281 23.828125 -45.78125 C 25.253906 -45.945312 26.679688 -46.140625 28.109375 -46.359375 C 30.191406 -46.679688 32.082031 -47.035156 33.78125 -47.421875 C 35.476562 -47.804688 36.328125 -48.054688 36.328125 -48.171875 L 36.328125 -50.625 C 36.328125 -51.507812 36.300781 -52.441406 36.25 -53.421875 C 36.195312 -54.410156 36.171875 -55.289062 36.171875 -56.0625 L 36.171875 -61.8125 C 35.953125 -64 35.59375 -66.296875 35.09375 -68.703125 C 34.601562 -71.117188 33.753906 -72.710938 32.546875 -73.484375 L 32.21875 -73.484375 C 31.5625 -73.703125 30.90625 -73.8125 30.25 -73.8125 C 28.601562 -73.8125 26.898438 -73.398438 25.140625 -72.578125 C 23.390625 -71.753906 22.023438 -70.847656 21.046875 -69.859375 L 20.546875 -69.375 C 19.453125 -68.382812 18.191406 -67.285156 16.765625 -66.078125 C 15.335938 -64.878906 13.859375 -64.28125 12.328125 -64.28125 C 9.035156 -64.28125 7.390625 -66.472656 7.390625 -70.859375 C 7.390625 -73.265625 8.1875 -75.398438 9.78125 -77.265625 C 11.375 -79.128906 13.207031 -80.71875 15.28125 -82.03125 C 17.363281 -83.34375 19.175781 -84.328125 20.71875 -84.984375 C 24.113281 -86.191406 27.125 -86.796875 29.75 -86.796875 C 34.90625 -86.796875 38.90625 -85.34375 41.75 -82.4375 C 44.601562 -79.53125 46.578125 -75.722656 47.671875 -71.015625 C 48.765625 -66.304688 49.3125 -61.15625 49.3125 -55.5625 C 49.3125 -54.351562 49.285156 -53.035156 49.234375 -51.609375 C 49.179688 -50.191406 49.15625 -48.828125 49.15625 -47.515625 L 49.15625 -39.625 C 49.15625 -38.414062 49.15625 -37.289062 49.15625 -36.25 C 49.15625 -35.207031 49.207031 -34.25 49.3125 -33.375 Z M 35.171875 -11.5 C 36.054688 -12.050781 36.609375 -12.847656 36.828125 -13.890625 C 37.046875 -14.929688 37.15625 -16 37.15625 -17.09375 C 37.15625 -19.289062 37.097656 -21.507812 36.984375 -23.75 C 36.878906 -26 36.769531 -28.054688 36.65625 -29.921875 C 36.550781 -30.796875 36.46875 -31.695312 36.40625 -32.625 C 36.351562 -33.5625 36.328125 -34.300781 36.328125 -34.84375 C 33.148438 -34.625 30.082031 -34.050781 27.125 -33.125 C 24.164062 -32.195312 21.78125 -30.691406 19.96875 -28.609375 C 18.164062 -26.523438 17.265625 -23.617188 17.265625 -19.890625 C 17.265625 -17.585938 17.894531 -15.78125 19.15625 -14.46875 C 20.414062 -13.15625 21.863281 -12.222656 23.5 -11.671875 C 25.144531 -11.117188 26.519531 -10.84375 27.625 -10.84375 L 29.421875 -10.84375 C 30.191406 -10.84375 31.097656 -10.867188 32.140625 -10.921875 C 33.179688 -10.984375 34.140625 -11.175781 35.015625 -11.5 Z M 35.171875 -11.5 "/></g></g></g><g fill="#3e506b" fill-opacity="1"><g transform="translate(321.571219, 156.309392)"><g><path d="M 28.9375 -8.875 L 32.0625 -4.765625 C 32.5 -4.109375 32.71875 -3.34375 32.71875 -2.46875 L 31.40625 0.65625 C 29.976562 2.40625 28.332031 3.28125 26.46875 3.28125 C 25.914062 3.28125 25.503906 3.253906 25.234375 3.203125 C 24.960938 3.148438 24.550781 3.066406 24 2.953125 L 19.734375 0.984375 C 16.878906 -0.546875 14.65625 -2.679688 13.0625 -5.421875 C 11.476562 -8.160156 10.328125 -11.285156 9.609375 -14.796875 C 8.898438 -18.304688 8.4375 -21.867188 8.21875 -25.484375 C 8 -29.097656 7.890625 -32.441406 7.890625 -35.515625 L 7.890625 -72.5 C 7.890625 -77.644531 7.859375 -82.21875 7.796875 -86.21875 C 7.742188 -90.21875 7.664062 -93.914062 7.5625 -97.3125 C 7.445312 -99.832031 7.363281 -102.519531 7.3125 -105.375 C 7.257812 -108.226562 7.234375 -110.691406 7.234375 -112.765625 C 7.234375 -115.398438 7.890625 -117.457031 9.203125 -118.9375 C 10.515625 -120.414062 12.210938 -121.15625 14.296875 -121.15625 C 15.285156 -121.15625 16.519531 -120.742188 18 -119.921875 C 19.476562 -119.097656 20.21875 -117.425781 20.21875 -114.90625 C 20.21875 -100.550781 20.21875 -89.015625 20.21875 -80.296875 C 20.21875 -71.585938 20.191406 -64.875 20.140625 -60.15625 C 20.085938 -55.445312 20.0625 -51.890625 20.0625 -49.484375 L 20.0625 -36.828125 C 20.0625 -29.585938 20.414062 -24.078125 21.125 -20.296875 C 21.832031 -16.515625 22.867188 -13.828125 24.234375 -12.234375 C 25.609375 -10.648438 27.175781 -9.53125 28.9375 -8.875 Z M 28.9375 -8.875 "/></g></g></g><g fill="#3e506b" fill-opacity="1"><g transform="translate(354.937618, 156.309392)"><g><path d="M 59.671875 -116.546875 L 60.5 -115.5625 C 62.25 -110.300781 63.125 -103.78125 63.125 -96 C 63.125 -94.25 63.125 -92.46875 63.125 -90.65625 C 63.125 -88.851562 63.070312 -87.019531 62.96875 -85.15625 C 62.851562 -83.070312 62.765625 -80.820312 62.703125 -78.40625 C 62.648438 -76 62.625 -73.753906 62.625 -71.671875 L 62.625 -70.359375 C 62.625 -69.367188 62.648438 -68.460938 62.703125 -67.640625 C 62.765625 -66.816406 62.960938 -65.859375 63.296875 -64.765625 L 63.296875 -57.53125 C 63.296875 -56.65625 63.296875 -55.640625 63.296875 -54.484375 C 63.296875 -53.335938 63.347656 -52.164062 63.453125 -50.96875 C 63.566406 -49.207031 63.648438 -47.117188 63.703125 -44.703125 C 63.753906 -42.296875 63.78125 -39.394531 63.78125 -36 L 63.78125 -27.625 C 63.78125 -24.769531 63.804688 -22.242188 63.859375 -20.046875 C 63.921875 -17.859375 64.003906 -16.050781 64.109375 -14.625 L 64.109375 -13.640625 C 64.109375 -13.097656 64.132812 -12.601562 64.1875 -12.15625 C 64.25 -11.71875 64.28125 -11.28125 64.28125 -10.84375 L 64.28125 -9.375 C 64.28125 -6.300781 64.0625 -3.832031 63.625 -1.96875 C 63.1875 -0.101562 61.429688 0.828125 58.359375 0.828125 C 57.265625 0.828125 55.785156 0.550781 53.921875 0 C 52.054688 -0.550781 51.125 -1.644531 51.125 -3.28125 L 51.125 -32.546875 C 51.125 -36.710938 51.015625 -40.796875 50.796875 -44.796875 C 50.578125 -48.796875 50.25 -52.988281 49.8125 -57.375 C 47.507812 -57.695312 45.535156 -57.859375 43.890625 -57.859375 L 38.953125 -57.859375 C 38.078125 -57.859375 37.226562 -57.832031 36.40625 -57.78125 C 35.582031 -57.726562 34.789062 -57.703125 34.03125 -57.703125 L 30.734375 -57.703125 C 29.859375 -57.703125 29.035156 -57.671875 28.265625 -57.609375 C 27.503906 -57.554688 26.796875 -57.476562 26.140625 -57.375 L 26.296875 -57.375 C 25.859375 -57.257812 25.257812 -57.203125 24.5 -57.203125 C 24.71875 -55.117188 24.851562 -53.007812 24.90625 -50.875 C 24.957031 -48.738281 24.984375 -46.359375 24.984375 -43.734375 C 24.984375 -43.296875 24.957031 -42.773438 24.90625 -42.171875 C 24.851562 -41.566406 24.828125 -40.878906 24.828125 -40.109375 C 24.710938 -38.796875 24.65625 -37.207031 24.65625 -35.34375 C 24.65625 -33.476562 24.65625 -31.125 24.65625 -28.28125 C 24.65625 -26.195312 24.679688 -23.785156 24.734375 -21.046875 C 24.796875 -18.304688 24.878906 -15.238281 24.984375 -11.84375 C 24.984375 -9.644531 24.820312 -7.722656 24.5 -6.078125 C 24.382812 -5.316406 24.242188 -4.550781 24.078125 -3.78125 C 23.921875 -3.007812 23.785156 -2.242188 23.671875 -1.484375 C 23.015625 -0.273438 21.972656 0.65625 20.546875 1.3125 C 19.117188 1.96875 18.023438 2.296875 17.265625 2.296875 C 15.503906 2.296875 14.160156 1.503906 13.234375 -0.078125 C 12.304688 -1.671875 11.84375 -3.726562 11.84375 -6.25 C 11.84375 -7.457031 11.953125 -8.609375 12.171875 -9.703125 C 12.273438 -10.359375 12.351562 -11.125 12.40625 -12 C 12.46875 -12.875 12.5 -13.75 12.5 -14.625 C 12.5 -18.25 12.46875 -21.347656 12.40625 -23.921875 C 12.351562 -26.492188 12.273438 -28.988281 12.171875 -31.40625 C 12.054688 -33.257812 11.972656 -35.253906 11.921875 -37.390625 C 11.867188 -39.535156 11.84375 -41.703125 11.84375 -43.890625 L 11.84375 -47.34375 C 11.84375 -51.070312 11.757812 -54.441406 11.59375 -57.453125 C 11.425781 -60.460938 11.234375 -63.335938 11.015625 -66.078125 C 10.898438 -68.597656 10.757812 -71.171875 10.59375 -73.796875 C 10.4375 -76.429688 10.359375 -79.285156 10.359375 -82.359375 C 10.359375 -84.546875 10.382812 -87.09375 10.4375 -90 C 10.488281 -92.90625 10.570312 -95.125 10.6875 -96.65625 L 10.6875 -114.75 C 10.6875 -116.28125 11.476562 -117.375 13.0625 -118.03125 C 14.65625 -118.6875 15.835938 -119.015625 16.609375 -119.015625 C 17.367188 -119.015625 18.625 -118.578125 20.375 -117.703125 C 22.132812 -116.828125 23.015625 -115.625 23.015625 -114.09375 L 23.015625 -90.25 C 23.015625 -87.394531 23.015625 -84.488281 23.015625 -81.53125 C 23.015625 -78.570312 22.957031 -75.5625 22.84375 -72.5 L 22.84375 -69.703125 C 24.488281 -69.703125 26.160156 -69.703125 27.859375 -69.703125 C 29.554688 -69.703125 31.285156 -69.753906 33.046875 -69.859375 C 35.234375 -69.972656 37.335938 -70.054688 39.359375 -70.109375 C 41.390625 -70.160156 43.445312 -70.1875 45.53125 -70.1875 C 46.519531 -70.1875 47.207031 -70.210938 47.59375 -70.265625 C 47.976562 -70.328125 48.609375 -70.300781 49.484375 -70.1875 C 49.703125 -74.03125 49.835938 -77.566406 49.890625 -80.796875 C 49.941406 -84.023438 49.96875 -87.175781 49.96875 -90.25 L 49.96875 -92.546875 C 49.96875 -96.828125 49.882812 -100.523438 49.71875 -103.640625 C 49.5625 -106.765625 49.425781 -108.929688 49.3125 -110.140625 L 49.3125 -111.453125 C 49.3125 -113.210938 49.664062 -114.800781 50.375 -116.21875 C 51.09375 -117.644531 52.820312 -118.359375 55.5625 -118.359375 C 57.09375 -118.359375 58.460938 -117.753906 59.671875 -116.546875 Z M 59.671875 -116.546875 "/></g></g></g><g fill="#3e506b" fill-opacity="1"><g transform="translate(428.902509, 156.309392)"><g><path d="M 47.84375 -24.328125 C 49.375 -23.671875 50.441406 -22.738281 51.046875 -21.53125 C 51.648438 -20.332031 51.953125 -18.742188 51.953125 -16.765625 C 51.953125 -11.722656 51.046875 -7.914062 49.234375 -5.34375 C 47.421875 -2.769531 45.007812 -1.015625 42 -0.078125 C 38.988281 0.847656 35.675781 1.476562 32.0625 1.8125 L 31.234375 1.8125 C 27.179688 1.8125 22.90625 0.878906 18.40625 -0.984375 C 13.914062 -2.847656 10.519531 -6.132812 8.21875 -10.84375 C 7.125 -12.382812 6.273438 -14.769531 5.671875 -18 C 5.066406 -21.226562 4.628906 -24.84375 4.359375 -28.84375 C 4.085938 -32.84375 3.894531 -36.84375 3.78125 -40.84375 C 3.664062 -44.84375 3.609375 -48.328125 3.609375 -51.296875 C 3.609375 -60.710938 4.429688 -68.101562 6.078125 -73.46875 C 7.722656 -78.84375 10.242188 -82.65625 13.640625 -84.90625 C 17.035156 -87.15625 21.3125 -88.28125 26.46875 -88.28125 C 32.71875 -88.28125 37.484375 -87.128906 40.765625 -84.828125 C 44.054688 -82.523438 46.410156 -78.46875 47.828125 -72.65625 C 49.253906 -66.851562 50.300781 -58.632812 50.96875 -48 L 50.796875 -46.6875 C 48.710938 -43.289062 45.863281 -41.59375 42.25 -41.59375 C 41.257812 -41.59375 40.21875 -41.703125 39.125 -41.921875 C 38.90625 -41.921875 38.710938 -41.945312 38.546875 -42 C 38.378906 -42.050781 38.1875 -42.078125 37.96875 -42.078125 C 37.75 -42.191406 37.367188 -42.25 36.828125 -42.25 L 35.515625 -42.40625 L 33.53125 -42.40625 C 29.476562 -42.40625 26.132812 -42.378906 23.5 -42.328125 C 20.875 -42.273438 18.628906 -42.140625 16.765625 -41.921875 L 16.765625 -38.796875 C 16.765625 -38.023438 16.765625 -37.3125 16.765625 -36.65625 C 16.765625 -36 16.820312 -35.234375 16.9375 -34.359375 L 16.9375 -31.5625 C 16.9375 -31.125 16.960938 -30.601562 17.015625 -30 C 17.066406 -29.394531 17.09375 -28.820312 17.09375 -28.28125 C 17.09375 -22.582031 18.328125 -18.28125 20.796875 -15.375 C 23.265625 -12.46875 27.566406 -11.015625 33.703125 -11.015625 C 36.328125 -11.015625 38.023438 -11.78125 38.796875 -13.3125 C 39.015625 -13.53125 39.148438 -13.882812 39.203125 -14.375 C 39.265625 -14.875 39.296875 -15.175781 39.296875 -15.28125 C 39.296875 -15.832031 39.347656 -16.378906 39.453125 -16.921875 C 39.566406 -17.472656 39.675781 -17.859375 39.78125 -18.078125 L 39.78125 -17.921875 L 39.953125 -18.40625 C 41.367188 -22.351562 43.722656 -24.382812 47.015625 -24.5 Z M 20.390625 -73.3125 C 18.847656 -71.226562 17.832031 -69.0625 17.34375 -66.8125 C 16.851562 -64.570312 16.609375 -62.191406 16.609375 -59.671875 C 16.609375 -58.578125 16.609375 -57.644531 16.609375 -56.875 C 16.609375 -56.113281 16.660156 -55.289062 16.765625 -54.40625 L 19.234375 -54.40625 C 20.660156 -54.40625 22.191406 -54.40625 23.828125 -54.40625 C 25.472656 -54.40625 27.226562 -54.351562 29.09375 -54.25 L 36.984375 -54.25 C 36.878906 -56.769531 36.796875 -58.878906 36.734375 -60.578125 C 36.679688 -62.273438 36.546875 -63.78125 36.328125 -65.09375 C 36.222656 -67.613281 35.921875 -69.664062 35.421875 -71.25 C 34.929688 -72.84375 34.25 -73.859375 33.375 -74.296875 L 33.53125 -74.296875 C 32.769531 -74.628906 31.894531 -74.929688 30.90625 -75.203125 C 29.914062 -75.484375 28.820312 -75.625 27.625 -75.625 L 26.46875 -75.625 C 24.9375 -75.40625 23.648438 -75.15625 22.609375 -74.875 C 21.566406 -74.601562 20.828125 -74.082031 20.390625 -73.3125 Z M 20.390625 -73.3125 "/></g></g></g><g fill="#3e506b" fill-opacity="1"><g transform="translate(486.430791, 156.309392)"><g><path d="M 28.9375 -8.875 L 32.0625 -4.765625 C 32.5 -4.109375 32.71875 -3.34375 32.71875 -2.46875 L 31.40625 0.65625 C 29.976562 2.40625 28.332031 3.28125 26.46875 3.28125 C 25.914062 3.28125 25.503906 3.253906 25.234375 3.203125 C 24.960938 3.148438 24.550781 3.066406 24 2.953125 L 19.734375 0.984375 C 16.878906 -0.546875 14.65625 -2.679688 13.0625 -5.421875 C 11.476562 -8.160156 10.328125 -11.285156 9.609375 -14.796875 C 8.898438 -18.304688 8.4375 -21.867188 8.21875 -25.484375 C 8 -29.097656 7.890625 -32.441406 7.890625 -35.515625 L 7.890625 -72.5 C 7.890625 -77.644531 7.859375 -82.21875 7.796875 -86.21875 C 7.742188 -90.21875 7.664062 -93.914062 7.5625 -97.3125 C 7.445312 -99.832031 7.363281 -102.519531 7.3125 -105.375 C 7.257812 -108.226562 7.234375 -110.691406 7.234375 -112.765625 C 7.234375 -115.398438 7.890625 -117.457031 9.203125 -118.9375 C 10.515625 -120.414062 12.210938 -121.15625 14.296875 -121.15625 C 15.285156 -121.15625 16.519531 -120.742188 18 -119.921875 C 19.476562 -119.097656 20.21875 -117.425781 20.21875 -114.90625 C 20.21875 -100.550781 20.21875 -89.015625 20.21875 -80.296875 C 20.21875 -71.585938 20.191406 -64.875 20.140625 -60.15625 C 20.085938 -55.445312 20.0625 -51.890625 20.0625 -49.484375 L 20.0625 -36.828125 C 20.0625 -29.585938 20.414062 -24.078125 21.125 -20.296875 C 21.832031 -16.515625 22.867188 -13.828125 24.234375 -12.234375 C 25.609375 -10.648438 27.175781 -9.53125 28.9375 -8.875 Z M 28.9375 -8.875 "/></g></g></g><g fill="#3e506b" fill-opacity="1"><g transform="translate(519.79721, 156.309392)"><g><path d="M 60.171875 -45.703125 C 60.390625 -43.617188 60.5 -41.367188 60.5 -38.953125 C 60.5 -36.546875 60.5 -34.03125 60.5 -31.40625 L 60.5 -27.453125 C 60.5 -18.796875 58.414062 -11.726562 54.25 -6.25 C 50.082031 -0.769531 43.890625 1.96875 35.671875 1.96875 C 33.585938 1.96875 31.476562 1.800781 29.34375 1.46875 C 27.207031 1.144531 25.148438 0.597656 23.171875 -0.171875 C 23.171875 2.023438 23.195312 4.164062 23.25 6.25 C 23.3125 8.332031 23.398438 10.46875 23.515625 12.65625 C 23.617188 15.289062 23.695312 17.921875 23.75 20.546875 C 23.8125 23.179688 23.84375 25.757812 23.84375 28.28125 L 23.84375 31.234375 C 23.84375 32.878906 23.84375 34.710938 23.84375 36.734375 C 23.84375 38.765625 23.734375 40.710938 23.515625 42.578125 L 23.515625 45.203125 C 23.398438 46.410156 23.257812 47.535156 23.09375 48.578125 C 22.925781 49.617188 22.351562 50.796875 21.375 52.109375 L 18.734375 53.59375 C 15.335938 53.59375 13.117188 52.769531 12.078125 51.125 C 11.035156 49.476562 10.515625 47.285156 10.515625 44.546875 L 10.515625 42.25 C 10.628906 41.476562 10.765625 38.679688 10.921875 33.859375 C 11.085938 29.035156 11.171875 23.117188 11.171875 16.109375 C 11.171875 13.703125 11.144531 11.425781 11.09375 9.28125 C 11.039062 7.144531 10.957031 4.875 10.84375 2.46875 C 10.84375 2.25 10.816406 2 10.765625 1.71875 C 10.710938 1.445312 10.6875 1.203125 10.6875 0.984375 C 10.570312 -1.972656 10.457031 -5.066406 10.34375 -8.296875 C 10.238281 -11.535156 10.132812 -14.578125 10.03125 -17.421875 C 9.914062 -24.328125 9.585938 -31.394531 9.046875 -38.625 L 8.21875 -46.359375 C 8 -48.660156 7.75 -51.039062 7.46875 -53.5 C 7.195312 -55.96875 7.0625 -58.460938 7.0625 -60.984375 C 7.0625 -64.054688 7.253906 -66.878906 7.640625 -69.453125 C 8.023438 -72.023438 8.875 -74.460938 10.1875 -76.765625 L 10.1875 -76.609375 C 12.164062 -80.773438 15.535156 -83.867188 20.296875 -85.890625 C 25.066406 -87.921875 29.804688 -88.9375 34.515625 -88.9375 C 36.273438 -88.9375 38.03125 -88.796875 39.78125 -88.515625 C 41.53125 -88.242188 43.117188 -87.78125 44.546875 -87.125 C 49.484375 -85.257812 52.988281 -82.628906 55.0625 -79.234375 C 57.144531 -75.835938 58.429688 -72.03125 58.921875 -67.8125 C 59.421875 -63.59375 59.726562 -59.179688 59.84375 -54.578125 C 59.84375 -53.148438 59.867188 -51.695312 59.921875 -50.21875 C 59.972656 -48.738281 60.054688 -47.234375 60.171875 -45.703125 Z M 47.671875 -32.71875 L 47.671875 -41.421875 C 47.671875 -42.078125 47.671875 -42.757812 47.671875 -43.46875 C 47.671875 -44.1875 47.617188 -44.875 47.515625 -45.53125 C 47.296875 -51.34375 46.960938 -56.601562 46.515625 -61.3125 C 46.078125 -66.03125 45.035156 -69.785156 43.390625 -72.578125 C 41.753906 -75.367188 38.960938 -76.765625 35.015625 -76.765625 C 32.378906 -76.765625 30.046875 -76.269531 28.015625 -75.28125 C 25.992188 -74.300781 24.050781 -73.097656 22.1875 -71.671875 C 21.09375 -70.359375 20.4375 -68.410156 20.21875 -65.828125 C 20 -63.253906 19.890625 -60.929688 19.890625 -58.859375 C 19.890625 -56.554688 19.972656 -54.171875 20.140625 -51.703125 C 20.304688 -49.234375 20.550781 -46.90625 20.875 -44.71875 L 20.875 -44.875 C 21.09375 -43.894531 21.203125 -42.742188 21.203125 -41.421875 C 21.203125 -40.109375 21.203125 -38.6875 21.203125 -37.15625 C 21.203125 -34.519531 21.3125 -31.695312 21.53125 -28.6875 C 21.75 -25.675781 22.269531 -22.828125 23.09375 -20.140625 C 23.914062 -17.453125 25.226562 -15.285156 27.03125 -13.640625 C 28.84375 -11.992188 31.394531 -11.171875 34.6875 -11.171875 C 36.21875 -11.171875 37.972656 -11.445312 39.953125 -12 L 40.609375 -12 C 43.671875 -13.425781 45.613281 -16.140625 46.4375 -20.140625 C 47.257812 -24.140625 47.671875 -28.332031 47.671875 -32.71875 Z M 47.671875 -32.71875 "/></g></g></g><g fill="#3e506b" fill-opacity="1"><g transform="translate(588.515809, 156.309392)"><g/></g></g></g></g><g transform="matrix(1, 0, 0, 1, 645, 56)"><g clip-path="url(#282e2ab99f)"><g fill="#69ff61" fill-opacity="1"><g transform="translate(0.22122, 135.324115)"><g><path d="M 74.859375 -45 L 75.703125 -44.4375 C 77.117188 -42.445312 77.828125 -40.507812 77.828125 -38.625 C 77.828125 -37.6875 77.472656 -36.4375 76.765625 -34.875 C 76.054688 -33.320312 75.039062 -32.546875 73.71875 -32.546875 L 59.859375 -33.671875 L 48.53125 -33.671875 C 48.53125 -31.597656 48.503906 -29.476562 48.453125 -27.3125 C 48.410156 -25.144531 48.390625 -23.019531 48.390625 -20.9375 C 48.390625 -20.46875 48.363281 -19.972656 48.3125 -19.453125 C 48.269531 -18.929688 48.25 -18.4375 48.25 -17.96875 L 47.828125 -9.765625 L 47.96875 -9.0625 L 48.53125 -3.109375 C 48.53125 -1.691406 48.035156 -0.582031 47.046875 0.21875 C 46.054688 1.019531 45.039062 1.5625 44 1.84375 C 42.96875 2.125 42.359375 2.265625 42.171875 2.265625 C 40.847656 2.265625 39.878906 1.976562 39.265625 1.40625 C 38.648438 0.84375 38.15625 0.140625 37.78125 -0.703125 L 36.359375 -2.40625 C 36.171875 -4.664062 36.03125 -7.019531 35.9375 -9.46875 C 35.84375 -11.925781 35.796875 -14.335938 35.796875 -16.703125 C 35.796875 -19.804688 35.816406 -22.65625 35.859375 -25.25 C 35.910156 -27.851562 35.984375 -30.660156 36.078125 -33.671875 C 35.421875 -33.671875 34.804688 -33.671875 34.234375 -33.671875 C 33.671875 -33.671875 33.015625 -33.625 32.265625 -33.53125 C 31.128906 -33.4375 29.992188 -33.363281 28.859375 -33.3125 C 27.734375 -33.269531 26.648438 -33.25 25.609375 -33.25 L 19.25 -33.25 C 18.863281 -33.25 18.484375 -33.222656 18.109375 -33.171875 C 17.734375 -33.128906 17.3125 -33.109375 16.84375 -33.109375 L 15.84375 -33.109375 C 14.625 -33.109375 13.257812 -33.222656 11.75 -33.453125 C 10.238281 -33.691406 8.960938 -34.519531 7.921875 -35.9375 C 6.890625 -37.351562 6.375 -39.757812 6.375 -43.15625 C 6.375 -44.851562 7.269531 -45.703125 9.0625 -45.703125 L 26.453125 -45.703125 C 28.148438 -45.703125 29.679688 -45.722656 31.046875 -45.765625 C 32.421875 -45.816406 34.097656 -45.796875 36.078125 -45.703125 C 35.984375 -49.566406 35.75 -53.429688 35.375 -57.296875 C 35 -61.171875 34.570312 -64.945312 34.09375 -68.625 C 34.09375 -69.757812 34.492188 -70.726562 35.296875 -71.53125 C 36.097656 -72.332031 36.992188 -72.921875 37.984375 -73.296875 C 38.984375 -73.671875 39.671875 -73.859375 40.046875 -73.859375 C 42.398438 -73.859375 44.613281 -72.394531 46.6875 -69.46875 C 47.164062 -65.976562 47.519531 -62.179688 47.75 -58.078125 C 47.988281 -53.984375 48.15625 -49.71875 48.25 -45.28125 L 48.53125 -45.28125 C 49.570312 -45.28125 50.703125 -45.300781 51.921875 -45.34375 C 53.148438 -45.394531 54.378906 -45.46875 55.609375 -45.5625 C 57.117188 -45.65625 58.675781 -45.75 60.28125 -45.84375 C 61.882812 -45.9375 63.441406 -45.984375 64.953125 -45.984375 C 66.554688 -45.984375 68.207031 -45.9375 69.90625 -45.84375 C 71.601562 -45.75 73.253906 -45.46875 74.859375 -45 Z M 74.859375 -45 "/></g></g></g><g fill="#69ff61" fill-opacity="1"><g transform="translate(87.252642, 135.324115)"><g/></g></g></g></g></svg>